<svg xmlns="http://www.w3.org/2000/svg" xmlns:xlink="http://www.w3.org/1999/xlink" width="1080" zoomAndPan="magnify" viewBox="0 0 810 809.999993" height="1080" preserveAspectRatio="xMidYMid meet" version="1.0"><defs><clipPath id="abf55cf155"><path d="M 267.246094 226 L 542 226 L 542 500.960938 L 267.246094 500.960938 Z M 267.246094 226 " clip-rule="nonzero"/></clipPath><clipPath id="ae5daec077"><path d="M 267.246094 225.710938 L 542.496094 225.710938 L 542.496094 500.960938 L 267.246094 500.960938 Z M 267.246094 225.710938 " clip-rule="nonzero"/></clipPath></defs><rect x="-81" width="972" fill="#ffffff" y="-80.999999" height="971.999992" fill-opacity="1"/><rect x="-81" width="972" fill="#ffffff" y="-80.999999" height="971.999992" fill-opacity="1"/><g clip-path="url(#abf55cf155)"><path fill="#f9be62" d="M 530.953125 226.023438 L 497.957031 226.023438 L 497.957031 236.992188 L 486.976562 236.992188 L 486.976562 247.976562 L 475.984375 247.976562 L 475.984375 258.953125 L 465.015625 258.953125 L 465.015625 269.925781 L 454.042969 269.925781 L 454.042969 280.90625 L 443.066406 280.90625 L 443.066406 291.886719 L 432.085938 291.886719 L 432.085938 302.867188 L 421.113281 302.867188 L 421.113281 313.839844 L 410.128906 313.839844 L 410.128906 324.824219 L 399.152344 324.824219 L 399.152344 335.800781 L 388.183594 335.800781 L 388.183594 346.789062 L 377.199219 346.789062 L 377.199219 357.773438 L 366.222656 357.773438 L 366.222656 368.75 L 355.238281 368.75 L 355.238281 379.734375 L 333.417969 379.734375 L 333.417969 368.730469 L 322.433594 368.730469 L 322.433594 357.753906 L 300.355469 357.753906 L 300.355469 368.730469 L 289.378906 368.730469 L 289.378906 379.820312 L 300.355469 379.820312 L 300.355469 390.8125 L 311.335938 390.8125 L 311.335938 401.789062 L 322.308594 401.789062 L 322.308594 423.613281 L 311.335938 423.613281 L 311.335938 434.597656 L 300.355469 434.597656 L 300.355469 445.574219 L 289.378906 445.574219 L 289.378906 456.546875 L 267.421875 456.546875 L 267.421875 500.585938 L 311.457031 500.585938 L 311.457031 478.632812 L 322.433594 478.632812 L 322.433594 467.65625 L 333.417969 467.65625 L 333.417969 456.6875 L 344.394531 456.6875 L 344.394531 445.703125 L 366.222656 445.703125 L 366.222656 456.6875 L 377.199219 456.6875 L 377.199219 467.667969 L 388.183594 467.667969 L 388.183594 478.644531 L 399.28125 478.644531 L 399.28125 467.65625 L 410.257812 467.65625 L 410.257812 445.574219 L 399.28125 445.574219 L 399.28125 434.597656 L 388.324219 434.597656 L 388.324219 412.773438 L 399.292969 412.773438 L 399.292969 401.789062 L 410.269531 401.789062 L 410.269531 390.8125 L 421.253906 390.8125 L 421.253906 379.820312 L 432.222656 379.820312 L 432.222656 368.855469 L 443.207031 368.855469 L 443.207031 357.878906 L 454.183594 357.878906 L 454.183594 346.898438 L 465.15625 346.898438 L 465.15625 335.925781 L 476.136719 335.925781 L 476.136719 324.949219 L 487.101562 324.949219 L 487.101562 313.964844 L 498.085938 313.964844 L 498.085938 302.996094 L 509.054688 302.996094 L 509.054688 292.011719 L 520.035156 292.011719 L 520.035156 281.035156 L 531.015625 281.035156 L 531.015625 270.066406 L 541.988281 270.066406 L 541.988281 226.023438 Z M 388.183594 401.726562 Z M 399.152344 390.746094 Z M 399.214844 346.917969 L 399.214844 357.835938 Z M 410.128906 379.796875 Z M 421.113281 368.8125 Z M 432.152344 324.886719 L 432.152344 313.964844 Z M 443.136719 313.902344 L 443.136719 302.996094 Z M 487.046875 259.082031 L 487.046875 270 Z M 497.964844 291.949219 Z M 498.027344 248.117188 L 498.027344 259.019531 Z M 508.9375 280.984375 Z M 519.914062 270.015625 Z M 519.914062 270.015625 " fill-opacity="1" fill-rule="nonzero"/></g><path fill="#fdd182" d="M 509.449219 258.707031 L 509.449219 247.730469 L 497.84375 247.730469 L 497.84375 258.707031 L 486.859375 258.707031 L 486.859375 269.691406 L 475.882812 269.691406 L 475.882812 280.660156 L 464.902344 280.660156 L 464.902344 291.636719 L 453.929688 291.636719 L 453.929688 302.621094 L 442.953125 302.621094 L 442.953125 313.589844 L 431.96875 313.589844 L 431.96875 324.554688 L 421 324.554688 L 421 335.53125 L 410.015625 335.53125 L 410.015625 346.503906 L 399.039062 346.503906 L 399.039062 357.488281 L 388.066406 357.488281 L 388.066406 368.464844 L 377.085938 368.464844 L 377.085938 379.445312 L 366.089844 379.445312 L 366.089844 390.417969 L 355.125 390.417969 L 355.125 402.054688 L 366.089844 402.054688 L 366.089844 413.039062 L 377.699219 413.039062 L 377.699219 402.054688 L 388.703125 402.054688 L 388.703125 391.070312 L 399.675781 391.070312 L 399.675781 380.101562 L 410.652344 380.101562 L 410.652344 369.117188 L 421.632812 369.117188 L 421.632812 358.140625 L 432.605469 358.140625 L 432.605469 347.15625 L 443.589844 347.15625 L 443.589844 336.1875 L 454.566406 336.1875 L 454.566406 325.191406 L 465.535156 325.191406 L 465.535156 314.226562 L 476.519531 314.226562 L 476.519531 303.257812 L 487.496094 303.257812 L 487.496094 292.273438 L 498.480469 292.273438 L 498.480469 281.296875 L 509.449219 281.296875 L 509.449219 270.324219 L 520.453125 270.324219 L 520.453125 258.707031 Z M 377.085938 401.417969 L 366.722656 401.417969 L 366.722656 391.070312 L 377.066406 391.070312 Z M 388.066406 390.441406 L 377.71875 390.441406 L 377.71875 380.101562 L 388.066406 380.101562 Z M 399.039062 379.472656 L 388.703125 379.472656 L 388.703125 369.117188 L 399.039062 369.117188 Z M 410.015625 368.488281 L 399.675781 368.488281 L 399.675781 358.140625 L 410.015625 358.140625 Z M 421 357.511719 L 410.652344 357.511719 L 410.652344 347.15625 L 421 347.15625 Z M 431.96875 346.527344 L 421.632812 346.527344 L 421.632812 336.1875 L 431.96875 336.1875 Z M 442.953125 335.550781 L 432.605469 335.550781 L 432.605469 325.191406 L 442.953125 325.191406 Z M 453.929688 324.554688 L 443.589844 324.554688 L 443.589844 314.226562 L 453.929688 314.226562 Z M 464.902344 313.574219 L 454.566406 313.574219 L 454.566406 303.257812 L 464.902344 303.257812 Z M 475.882812 302.601562 L 465.535156 302.601562 L 465.535156 292.273438 L 475.882812 292.273438 Z M 486.859375 291.617188 L 476.519531 291.617188 L 476.519531 281.296875 L 486.859375 281.296875 Z M 497.84375 280.660156 L 487.496094 280.660156 L 487.496094 270.324219 L 497.84375 270.324219 Z M 508.816406 269.691406 L 498.480469 269.691406 L 498.480469 259.339844 L 508.816406 259.339844 Z M 508.816406 269.691406 " fill-opacity="1" fill-rule="nonzero"/><path fill="#ffffff" d="M 531.09375 259.023438 L 531.09375 270.007812 L 520.109375 270.007812 L 520.109375 259.023438 Z M 520.109375 248.046875 L 520.109375 259.023438 L 531.09375 259.023438 L 531.09375 248.046875 Z M 520.109375 237.0625 L 520.109375 248.046875 L 531.09375 248.046875 L 531.09375 237.0625 Z M 509.132812 270.007812 L 509.132812 280.976562 L 520.109375 280.976562 L 520.109375 270.007812 Z M 509.132812 237.0625 L 509.132812 248.046875 L 520.109375 248.046875 L 520.109375 237.0625 Z M 498.160156 280.976562 L 498.160156 291.953125 L 509.132812 291.953125 L 509.132812 280.976562 Z M 498.160156 237.0625 L 498.160156 248.046875 L 509.132812 248.046875 L 509.132812 237.0625 Z M 487.179688 291.953125 L 487.179688 302.957031 L 498.160156 302.957031 L 498.160156 291.953125 Z M 487.179688 248.046875 L 487.179688 259.023438 L 498.160156 259.023438 L 498.160156 248.046875 Z M 476.203125 302.957031 L 476.203125 313.929688 L 487.179688 313.929688 L 487.179688 302.957031 Z M 476.203125 259.042969 L 476.203125 270.007812 L 487.179688 270.007812 L 487.179688 259.023438 Z M 465.21875 313.929688 L 465.21875 324.910156 L 476.203125 324.910156 L 476.203125 313.910156 Z M 465.21875 270.027344 L 465.21875 280.976562 L 476.203125 280.976562 L 476.203125 270.007812 Z M 454.246094 324.910156 L 454.246094 335.886719 L 465.21875 335.886719 L 465.21875 324.890625 Z M 454.246094 280.996094 L 454.246094 291.972656 L 465.21875 291.972656 L 465.21875 280.976562 Z M 443.269531 335.871094 L 443.269531 346.839844 L 454.246094 346.839844 L 454.246094 335.871094 Z M 443.269531 291.953125 L 443.269531 302.957031 L 454.246094 302.957031 L 454.246094 291.953125 Z M 432.289062 346.839844 L 432.289062 357.824219 L 443.269531 357.824219 L 443.269531 346.839844 Z M 432.289062 302.9375 L 432.289062 313.910156 L 443.269531 313.910156 L 443.269531 302.957031 Z M 421.316406 357.824219 L 421.316406 368.800781 L 432.289062 368.800781 L 432.289062 357.824219 Z M 421.316406 313.910156 L 421.316406 324.890625 L 432.289062 324.890625 L 432.289062 313.910156 Z M 410.332031 368.800781 L 410.332031 379.785156 L 421.316406 379.785156 L 421.316406 368.800781 Z M 410.332031 324.890625 L 410.332031 335.871094 L 421.316406 335.871094 L 421.316406 324.890625 Z M 399.355469 379.785156 L 399.355469 390.753906 L 410.332031 390.753906 L 410.332031 379.785156 Z M 399.355469 335.871094 L 399.355469 346.839844 L 410.332031 346.839844 L 410.332031 335.871094 Z M 388.386719 390.753906 L 388.386719 401.730469 L 399.355469 401.730469 L 399.355469 390.753906 Z M 388.386719 346.839844 L 388.386719 357.824219 L 399.355469 357.824219 L 399.355469 346.839844 Z M 377.402344 401.730469 L 377.402344 412.714844 L 388.386719 412.714844 L 388.386719 401.730469 Z M 377.402344 357.824219 L 377.402344 368.800781 L 388.386719 368.800781 L 388.386719 357.824219 Z M 366.425781 368.800781 L 366.425781 379.785156 L 377.402344 379.785156 L 377.402344 368.800781 Z M 355.441406 379.785156 L 355.441406 390.753906 L 366.425781 390.753906 L 366.425781 379.785156 Z M 355.441406 379.785156 " fill-opacity="1" fill-rule="nonzero"/><path fill="#f04d5e" d="M 344.789062 423.367188 L 344.789062 445.964844 L 333.8125 445.964844 L 333.8125 456.933594 L 322.828125 456.933594 L 322.828125 467.917969 L 300.238281 467.917969 L 300.238281 445.328125 L 311.222656 445.328125 L 311.222656 434.351562 L 322.195312 434.351562 L 322.195312 423.367188 Z M 344.789062 423.367188 " fill-opacity="1" fill-rule="nonzero"/><g clip-path="url(#ae5daec077)"><path fill="#3d3b52" d="M 531.09375 225.679688 L 497.75 225.679688 L 497.75 236.652344 L 486.785156 236.652344 L 486.785156 247.632812 L 475.789062 247.632812 L 475.789062 258.609375 L 464.804688 258.609375 L 464.804688 269.59375 L 453.835938 269.59375 L 453.835938 280.566406 L 442.859375 280.566406 L 442.859375 291.523438 L 431.875 291.523438 L 431.875 302.507812 L 420.902344 302.507812 L 420.902344 313.476562 L 409.921875 313.476562 L 409.921875 324.460938 L 398.945312 324.460938 L 398.945312 335.4375 L 387.972656 335.4375 L 387.972656 346.40625 L 376.988281 346.40625 L 376.988281 357.390625 L 366.011719 357.390625 L 366.011719 368.386719 L 355.03125 368.386719 L 355.03125 379.371094 L 333.90625 379.371094 L 333.90625 368.386719 L 322.925781 368.386719 L 322.925781 357.410156 L 300.144531 357.410156 L 300.144531 368.386719 L 289.167969 368.386719 L 289.167969 380.195312 L 300.144531 380.195312 L 300.144531 391.167969 L 311.128906 391.167969 L 311.128906 402.144531 L 322.097656 402.144531 L 322.097656 423.273438 L 311.128906 423.273438 L 311.128906 434.253906 L 300.144531 434.253906 L 300.144531 445.25 L 289.167969 445.25 L 289.167969 456.222656 L 267.214844 456.222656 L 267.214844 500.960938 L 311.953125 500.960938 L 311.953125 478.988281 L 322.925781 478.988281 L 322.925781 468.011719 L 333.90625 468.011719 L 333.90625 457.027344 L 344.882812 457.027344 L 344.882812 446.058594 L 366.011719 446.058594 L 366.011719 457.027344 L 376.988281 457.027344 L 376.988281 468.011719 L 387.972656 468.011719 L 387.972656 478.988281 L 399.757812 478.988281 L 399.757812 468.011719 L 410.746094 468.011719 L 410.746094 445.25 L 399.757812 445.25 L 399.757812 434.253906 L 388.796875 434.253906 L 388.796875 413.128906 L 399.757812 413.128906 L 399.757812 402.144531 L 410.746094 402.144531 L 410.746094 391.167969 L 421.730469 391.167969 L 421.730469 380.195312 L 432.699219 380.195312 L 432.699219 369.214844 L 443.683594 369.214844 L 443.683594 358.222656 L 454.660156 358.222656 L 454.660156 347.253906 L 465.632812 347.253906 L 465.632812 336.28125 L 476.621094 336.28125 L 476.621094 325.304688 L 487.597656 325.304688 L 487.597656 314.320312 L 498.582031 314.320312 L 498.582031 303.351562 L 509.550781 303.351562 L 509.550781 292.367188 L 520.527344 292.367188 L 520.527344 281.390625 L 531.503906 281.390625 L 531.503906 270.421875 L 542.476562 270.421875 L 542.476562 225.679688 Z M 300.144531 489.132812 L 279.023438 489.132812 L 279.023438 468.011719 L 289.1875 468.011719 L 289.1875 478.988281 L 300.144531 478.988281 Z M 344.058594 434.667969 L 344.058594 445.25 L 333.054688 445.25 L 333.054688 456.222656 L 322.097656 456.222656 L 322.097656 467.207031 L 300.96875 467.207031 L 300.96875 446.058594 L 311.953125 446.058594 L 311.953125 435.085938 L 322.925781 435.085938 L 322.925781 424.097656 L 344.058594 424.097656 Z M 398.945312 446.058594 L 398.945312 467.1875 L 388.78125 467.1875 L 388.78125 456.203125 L 377.816406 456.203125 L 377.816406 445.25 L 366.839844 445.25 L 366.839844 434.253906 L 355.855469 434.253906 L 355.855469 423.273438 L 344.882812 423.273438 L 344.882812 412.300781 L 333.90625 412.300781 L 333.90625 401.316406 L 322.925781 401.316406 L 322.925781 390.339844 L 311.953125 390.339844 L 311.953125 379.371094 L 300.96875 379.371094 L 300.96875 369.207031 L 322.097656 369.207031 L 322.097656 380.191406 L 333.054688 380.191406 L 333.054688 391.160156 L 344.035156 391.160156 L 344.035156 402.136719 L 355.003906 402.136719 L 355.003906 413.121094 L 365.988281 413.121094 L 365.988281 424.097656 L 376.964844 424.097656 L 376.964844 435.085938 L 387.949219 435.085938 L 387.949219 446.066406 Z M 530.679688 259.023438 L 530.679688 269.59375 L 519.695312 269.59375 L 519.695312 280.566406 L 508.71875 280.566406 L 508.71875 291.523438 L 497.75 291.523438 L 497.75 302.507812 L 486.785156 302.507812 L 486.785156 313.476562 L 475.789062 313.476562 L 475.789062 324.460938 L 464.804688 324.460938 L 464.804688 335.4375 L 453.835938 335.4375 L 453.835938 346.40625 L 442.859375 346.40625 L 442.859375 357.390625 L 431.875 357.390625 L 431.875 368.386719 L 420.902344 368.386719 L 420.902344 379.371094 L 409.921875 379.371094 L 409.921875 390.339844 L 398.945312 390.339844 L 398.945312 401.316406 L 387.972656 401.316406 L 387.972656 412.300781 L 366.839844 412.300781 L 366.839844 401.316406 L 355.855469 401.316406 L 355.855469 380.195312 L 366.839844 380.195312 L 366.839844 369.214844 L 377.816406 369.214844 L 377.816406 358.222656 L 388.796875 358.222656 L 388.796875 347.253906 L 399.757812 347.253906 L 399.757812 336.28125 L 410.746094 336.28125 L 410.746094 325.304688 L 421.730469 325.304688 L 421.730469 314.320312 L 432.699219 314.320312 L 432.699219 303.351562 L 443.683594 303.351562 L 443.683594 292.367188 L 454.660156 292.367188 L 454.660156 281.390625 L 465.632812 281.390625 L 465.632812 270.421875 L 476.621094 270.421875 L 476.621094 259.4375 L 487.597656 259.4375 L 487.597656 248.460938 L 498.582031 248.460938 L 498.582031 237.476562 L 530.679688 237.476562 Z M 530.679688 259.023438 " fill-opacity="1" fill-rule="nonzero"/></g></svg>